<svg xmlns="http://www.w3.org/2000/svg" version="1.1" xmlns:xlink="http://www.w3.org/1999/xlink" xmlns:svgjs="http://svgjs.dev/svgjs" width="2000" height="383" viewBox="0 0 2000 383"><g transform="matrix(1,0,0,1,-1.2121212121212466,0.4644019138755766)"><svg viewBox="0 0 396 76" data-background-color="#ffffff" preserveAspectRatio="xMidYMid meet" height="383" width="2000" xmlns="http://www.w3.org/2000/svg" xmlns:xlink="http://www.w3.org/1999/xlink"><g id="tight-bounds" transform="matrix(1,0,0,1,0.2400000000000091,-0.09215286019463065)"><svg viewBox="0 0 395.52 76.18430572038926" height="76.18430572038926" width="395.52"><g><svg viewBox="0 0 395.52 76.18430572038926" height="76.18430572038926" width="395.52"><g><svg viewBox="0 0 395.52 76.18430572038926" height="76.18430572038926" width="395.52"><g id="textblocktransform"><svg viewBox="0 0 395.52 76.18430572038926" height="76.18430572038926" width="395.52" id="textblock"><g><svg viewBox="0 0 395.52 76.18430572038926" height="76.18430572038926" width="395.52"><g transform="matrix(1,0,0,1,0,0)"><svg width="395.52" viewBox="-0.93 -38.04 205.71 39.63" height="76.18430572038926" data-palette-color="#3ea7ff"><path d="M41.43 0.27L41.43 0.27Q41.41 0.59 40.09 0.59L40.09 0.59 37.84 0.59 36.33 0.61 34.84 0.61 32.47 0.63Q28.93 0.63 26.59 0.46L26.59 0.46Q26.51 0.44 26.42 0.17L26.42 0.17 26.29-0.34Q26.07-2.86 25.15-5.2L25.15-5.2 14.7-5.1Q14.6-4.69 14.06-2.64 13.53-0.59 13.26 0.46L13.26 0.46Q13.01 0.71 10.94 0.71L10.94 0.71 10.33 0.68 8.91 0.68 2.56 0.83 1.83 0.83 1.15 0.85-0.56 0.85Q-0.73 0.68-0.93 0.42L-0.93 0.42Q1.51-8.03 5.69-20.53L5.69-20.53 6.25-22.27 6.23-22.27 6.88-24.29Q7.2-25.27 8.7-29.71 10.21-34.16 10.58-35.45 10.96-36.74 11.04-36.79L11.04-36.79 15.09-36.79 23.75-36.91 26.1-36.79 28.03-36.91Q29.49-36.91 29.49-36.33L29.49-36.33Q31.93-29.52 36.01-16.72 40.09-3.93 40.6-2.34L40.6-2.34 40.94-1.12Q41.11-0.46 41.43 0.27ZM15.82-13.06L17.26-13.06 18.26-13.04 24.1-13.06Q23.73-15.97 23.54-17.33L23.54-17.33 22.61-21.51Q21.14-27.98 21.09-28.1 21.04-28.22 21.01-28.33 20.97-28.44 20.95-28.48 20.92-28.52 20.89-28.61 20.85-28.71 20.81-28.75 20.78-28.78 20.73-28.86L20.73-28.86Q20.56-29.15 20.02-29.37L20.02-29.37Q19.36-29.22 16.09-14.67L16.09-14.67 15.82-13.06ZM42.87-2.93L42.87-16.14 42.92-26.17 42.92-36.35Q42.97-36.38 43.38-36.38L43.38-36.38 44.28-36.38Q44.8-36.38 45.07-36.43L45.07-36.43 48.09-36.55Q49.27-36.6 49.9-36.6L49.9-36.6 53.78-36.6 60.96-36.77Q62.42-36.77 64.18-36.65L64.18-36.65 64.35-36.65Q65.18-36.69 65.4-36.69L65.4-36.69Q70.29-36.69 73.75-33.59L73.75-33.59Q75.44-32.1 76.41-29.76 77.39-27.42 77.39-24.91 77.39-22.41 76.88-20.65 76.36-18.9 75.56-17.68L75.56-17.68Q72.34-12.74 63.08-11.91L63.08-11.91 57.81-11.69Q57.57-5.83 57.57-2.59L57.57-2.59 57.59-1.83 57.59 0.15Q57.49 0.49 57.22 0.61L57.22 0.61 43.28 0.83Q42.87-0.34 42.87-2.93L42.87-2.93ZM64.23-26.61L64.23-26.61Q63.25-29.17 59.06-29.35L59.06-29.35Q58.44-29.37 57.37-29.37L57.37-29.37Q57.08-29.37 57-22.17L57-22.17 56.96-20.34 57.03-18.87Q60.03-18.92 62.31-20.14 64.6-21.36 64.6-24.58L64.6-24.58Q64.6-25.95 64.23-26.61ZM78.49-19.46L78.49-19.46Q79.07-25.02 80.44-27.83L80.44-27.83Q83.05-33.25 88.23-35.52L88.23-35.52Q92.84-37.55 98.26-37.55L98.26-37.55Q107.34-37.55 111.52-32.57L111.52-32.57Q114.03-29.61 114.42-25.22L114.42-25.22 114.64-22.92Q114.23-22.53 109.39-22.53L109.39-22.53 105.51-22.58 105.2-22.58 103.07-22.63 102.49-22.61 102-22.61Q101.31-22.61 100.96-24.61 100.61-26.61 99.89-27.26 99.16-27.91 98.21-27.91 97.26-27.91 96.54-27.56 95.82-27.22 95.36-26.75 94.89-26.27 94.58-25.39L94.58-25.39Q93.99-23.88 93.87-22.18 93.75-20.48 93.75-18.38L93.75-18.38 93.75-17.8 93.65-15.33Q93.65-8.59 97.46-8.45L97.46-8.45Q98.43-8.45 98.82-8.79L98.82-8.79Q99.87-9.72 100.65-12.52L100.65-12.52Q100.83-13.11 101.07-13.48L101.07-13.48 102-13.48 103.12-13.45 107.08-13.45 108.27-13.48 110.59-13.45 112.01-13.45 113.45-13.43 114.42-13.43Q114.72-13.4 114.84-12.92L114.84-12.92 114.77-12.11Q114.55-9.23 113.42-6.88L113.42-6.88Q111.35-2.59 106.89-0.5 102.44 1.59 97.11 1.59L97.11 1.59Q87.81 1.59 83.15-3.91 78.49-9.4 78.49-19.46ZM131.58-21.04L130.68-21Q130.39-14.09 130.39-6.79L130.39-6.79 130.39 0.49 128.61 0.49 128 0.46 119.33 0.54Q118.5 0.54 118.45 0.56L118.45 0.56Q118.45 0.54 118.55 0.15L118.55 0.15 118.55 0 118.57-0.1Q118.45-1.86 118.45-4.37L118.45-4.37 118.55-31.64 118.52-32.91 118.52-34.13 118.47-36.43Q118.47-36.67 118.74-36.94L118.74-36.94 122.09-36.94 124.04-36.96Q130.93-36.96 133.89-36.77 136.86-36.57 138.15-36.57L138.15-36.57Q138.86-32.37 140.25-25.44L140.25-25.44 141.98-16.7 142.84-16.7 145.96-32.67Q146.04-33.03 146.31-34.8 146.57-36.57 146.72-36.77L146.72-36.77 146.82-36.77 162.71-36.91 163.66-36.89 166.4-36.89Q166.62-36.79 166.64-35.99L166.64-35.99 166.89-26.76Q167.18-15.28 167.3-8.89L167.3-8.89Q167.3-3.96 167.16 0.37L167.16 0.37Q167.08 0.66 166.18 0.71L166.18 0.71 165.08 0.76Q163.76 0.81 163.13 0.81L163.13 0.81 161.86 0.81Q159.49 0.83 154.88 0.83L154.88 0.83Q154.02 0.07 154.02-5.71L154.02-5.71 154.07-13.38 154.07-15.36Q154.07-17.97 154.05-19.21L154.05-19.21 153.12-19.38Q152.31-16.43 150.02-6.23L150.02-6.23 149.8-5.25Q149.63-4.49 149.22-2.55 148.82-0.61 148.58 0.39L148.58 0.39Q148.28 0.73 145.99 0.73L145.99 0.73 145.67 0.73 142.94 0.66 141.45 0.68 140.3 0.68 138.37 0.71 137.69 0.71Q136.56 0.71 136.44 0.2L136.44 0.2 136.47 0.22 134.25-9.47Q134.15-9.84 133.81-11.07 133.46-12.3 133.42-13.13L133.42-13.13 131.58-21.04ZM170.33-10.08L170.33-10.08 183.24-10.3Q183.73-10.3 184.06-9.47 184.39-8.64 184.71-8.15L184.71-8.15Q185.46-6.98 187.21-6.98 188.95-6.98 190.03-7.8 191.1-8.62 191.1-9.91 191.1-11.21 190.44-11.68 189.78-12.16 189-12.61 188.22-13.06 186.7-13.31 185.17-13.55 185.02-13.6L185.02-13.6 185.07-13.6 183.68-13.96Q182.34-14.21 181.44-14.5L181.44-14.5Q175.6-16.06 173-18.43 170.4-20.8 170.4-24.8L170.4-24.8Q170.4-27.71 171.47-30.03 172.55-32.35 174.28-33.81L174.28-33.81Q179.29-38.04 188.1-38.04L188.1-38.04Q195.11-38.04 199.11-35.5L199.11-35.5 199.09-35.5Q201.65-33.64 202.6-31.85 203.55-30.05 203.8-27.42L203.8-27.42 203.16-26.78Q196.74-26.54 191.79-26.54L191.79-26.54Q190.3-26.54 190-27.42L190-27.42Q189.88-27.78 189.74-28.15L189.74-28.15Q189.39-29.03 187.54-29.03L187.54-29.03 187.44-29.03Q186-29.03 184.98-28.36 183.95-27.69 183.94-27.05 183.93-26.42 184.21-26 184.49-25.59 184.8-25.34 185.12-25.1 185.78-24.84 186.44-24.58 186.77-24.5 187.1-24.41 187.81-24.22L187.81-24.22 188.66-24Q189.17-23.85 191.65-23.27 194.13-22.68 195.79-22.14L195.79-22.14 195.79-22.17Q200.99-20.41 202.88-17.79 204.78-15.16 204.78-11.67L204.78-11.67Q204.78-2.37 193.67 0.39L193.67 0.39Q190.44 1.2 186.78 1.54L186.78 1.54Q182.29 1.54 177.9 0.22 173.5-1.1 172.01-4.08L172.01-4.08Q171.01-5.52 170.67-6.73 170.33-7.93 170.11-10.11L170.11-10.11Q170.18-10.08 170.33-10.08Z" opacity="1" transform="matrix(1,0,0,1,0,0)" fill="#3ea7ff" class="wordmark-text-0" data-fill-palette-color="primary" id="text-0"></path></svg></g></svg></g></svg></g></svg></g></svg></g><defs></defs></svg><rect width="395.52" height="76.18430572038926" fill="none" stroke="none" visibility="hidden"></rect></g></svg></g></svg>